<svg xmlns="http://www.w3.org/2000/svg" xmlns:xlink="http://www.w3.org/1999/xlink" viewBox="0,0,256,256" width="30px" height="30px" fill-rule="nonzero"><g fill="#263a40" fill-rule="nonzero" stroke="none" stroke-width="1" stroke-linecap="butt" stroke-linejoin="miter" stroke-miterlimit="10" stroke-dasharray="" stroke-dashoffset="0" font-family="none" font-weight="none" font-size="none" text-anchor="none" style="mix-blend-mode: normal"><g transform="scale(8.53333,8.53333)"><path d="M25.98,20.3c0.36,-0.71 -0.21,-1.44 -0.91,-1.44c-0.15,0 -0.3,0.03 -0.46,0.1c-1.31,0.63 -2.79,0.99 -4.34,0.99c-5.55,0 -10.05,-4.5 -10.05,-10.03c0,-1.66 0.4,-3.22 1.11,-4.59c0.37,-0.72 -0.17,-1.5 -0.87,-1.5c-0.13,0 -0.28,0.03 -0.42,0.1c-4.34,2.01 -7.26,6.48 -7.03,11.53c0.3,6.49 5.67,11.54 12.11,11.54c0.19,0 0.38,0 0.56,-0.01c4.55,-0.21 8.4,-2.89 10.3,-6.69z"></path></g></g></svg>