<?xml version="1.0" encoding="utf-8"?>
<!-- Generator: Adobe Illustrator 26.1.0, SVG Export Plug-In . SVG Version: 6.00 Build 0)  -->
<svg version="1.1" id="Layer_1" xmlns="http://www.w3.org/2000/svg" xmlns:xlink="http://www.w3.org/1999/xlink" x="0px" y="0px"
	 viewBox="0 0 42.19 39.85" style="enable-background:new 0 0 42.19 39.85;" xml:space="preserve">
<style type="text/css">
	.st0{fill:#283C40;}
</style>
<g>
	<path class="st0" d="M38.72,10.35c-0.89-1-1.69-1.99-2.57-2.89c-1.21-1.23-2.63-2.21-4.17-3.06c-0.3-0.17-0.56-0.2-0.9-0.05
		c-0.65,0.29-1.43,0.02-1.73-0.56c-0.32-0.62-0.07-1.34,0.56-1.65c0.6-0.3,1.4-0.11,1.74,0.43c0.06,0.09,0.13,0.2,0.13,0.3
		c0.02,0.47,0.35,0.69,0.74,0.9c2.94,1.59,5.26,3.77,7.05,6.46c0.28,0.42,0.25,0.47-0.21,0.72c-1.2,0.65-2.4,1.3-3.59,1.95
		c-0.51,0.28-0.57,0.28-0.89-0.19c-1.37-1.97-3.08-3.6-5.28-4.77c-1.78-0.95-3.69-1.51-5.72-1.75c-4.97-0.61-9.18,0.89-12.75,4.08
		c-0.51,0.46-0.93,1-1.4,1.5c-0.23,0.25-0.26,0.5-0.12,0.83c0.23,0.55-0.02,1.19-0.52,1.47c-0.53,0.3-1.24,0.23-1.68-0.2
		c-0.36-0.35-0.44-0.79-0.29-1.25c0.15-0.46,0.49-0.76,1-0.8c0.45-0.03,0.72-0.22,0.98-0.54c2.68-3.27,6.2-5.31,10.58-5.83
		c5.64-0.67,10.48,0.92,14.36,4.88c0.44,0.45,0.82,0.96,1.23,1.45c0.13,0.15,0.25,0.29,0.48,0.17
		C36.7,11.43,37.64,10.92,38.72,10.35z"/>
	<path class="st0" d="M2.18,20.54c0.06,2.36,0.57,4.92,1.73,7.35c0.18,0.38,0.39,0.62,0.89,0.68c0.73,0.08,1.15,0.81,0.96,1.52
		c-0.18,0.67-0.95,1.04-1.73,0.82c-0.71-0.2-1.1-0.95-0.77-1.62c0.19-0.37,0.12-0.65-0.05-0.98c-1.5-3.06-2.09-6.27-1.77-9.61
		c0.42-4.26,2.06-8.08,5.19-11.24c3.28-3.31,7.28-5.47,12.11-6.14c0.46-0.06,0.92-0.13,1.39-0.17c0.35-0.03,0.59-0.15,0.8-0.43
		c0.32-0.43,0.8-0.56,1.34-0.45c0.53,0.11,0.86,0.43,0.97,0.93c0.1,0.51-0.02,0.96-0.5,1.28c-0.55,0.36-1.4,0.28-1.78-0.23
		c-0.22-0.28-0.45-0.35-0.79-0.32c-6.3,0.61-11.23,3.38-14.74,8.29C3.27,13.25,2.22,16.61,2.18,20.54z"/>
	<path class="st0" d="M22.2,9.48c2.83,0.04,5.44,0.94,7.64,2.82c0.38,0.33,0.74,0.68,1.08,1.04c0.26,0.28,0.52,0.48,0.96,0.51
		c0.7,0.05,1.2,0.64,1.17,1.27c-0.03,0.62-0.57,1.14-1.24,1.2c-0.67,0.05-1.29-0.37-1.41-0.99c-0.04-0.21-0.03-0.48,0.07-0.67
		c0.15-0.31,0.07-0.52-0.14-0.75c-1.75-1.93-3.98-3.08-6.64-3.52c-4.78-0.8-9.61,1.75-11.52,5.72c-1.2,2.51-1.32,5.09-0.33,7.7
		c0.11,0.3,0.27,0.5,0.67,0.56c0.77,0.11,1.24,0.82,1.05,1.51c-0.17,0.66-0.93,1.09-1.61,0.91c-0.79-0.2-1.19-0.89-0.9-1.62
		c0.16-0.39,0.13-0.72-0.02-1.11c-1.6-4.12-0.49-9.84,4.68-12.87C17.73,10.01,19.87,9.41,22.2,9.48z"/>
	<path class="st0" d="M21.64,39.62c-2.32-0.13-4.59-0.44-6.77-1.21c-0.3-0.1-0.54-0.04-0.8,0.1c-0.49,0.26-1,0.22-1.46-0.09
		c-0.48-0.32-0.6-0.78-0.5-1.29c0.1-0.47,0.43-0.79,0.93-0.93c0.77-0.2,1.52,0.2,1.68,0.94c0.06,0.28,0.2,0.44,0.49,0.53
		c2.55,0.84,5.16,1.23,7.86,1.07c4.73-0.28,8.89-1.86,12.33-4.93c1.02-0.91,1.89-1.98,2.82-2.98c0.19-0.2,0.12-0.39,0.03-0.61
		c-0.29-0.66,0.04-1.38,0.74-1.65c0.65-0.25,1.42,0.06,1.72,0.68c0.36,0.73-0.17,1.62-1.04,1.71c-0.38,0.04-0.61,0.19-0.82,0.47
		c-2.12,2.75-4.78,4.91-8.1,6.32c-2.19,0.93-4.5,1.52-6.91,1.71C23.11,39.53,22.38,39.57,21.64,39.62z"/>
	<path class="st0" d="M31.38,25.4c1.43,0.77,2.86,1.53,4.28,2.29c0.29,0.16,0.21,0.34,0.07,0.54c-1.36,1.99-3.07,3.64-5.23,4.88
		c-0.33,0.19-0.53,0.42-0.6,0.79c-0.15,0.71-0.86,1.1-1.61,0.91c-0.73-0.18-1.14-0.87-0.93-1.56c0.22-0.69,0.98-1.11,1.68-0.81
		c0.55,0.24,0.92,0.06,1.35-0.2c1.6-1,2.95-2.24,4.07-3.69c0.27-0.35,0.26-0.4-0.13-0.61c-0.77-0.42-1.55-0.83-2.31-1.27
		c-0.32-0.18-0.51-0.09-0.71,0.16c-1.94,2.36-4.49,3.78-7.65,4.24c-1.59,0.23-3.18,0.15-4.73-0.28c-0.38-0.11-0.7-0.11-1.06,0.1
		c-0.59,0.35-1.37,0.16-1.76-0.36c-0.38-0.52-0.26-1.28,0.25-1.67c0.53-0.4,1.34-0.37,1.8,0.09c0.14,0.14,0.27,0.32,0.3,0.5
		c0.07,0.36,0.32,0.5,0.65,0.58c2.88,0.72,5.62,0.37,8.22-0.99c1.57-0.82,2.82-1.96,3.78-3.37c0.05-0.07,0.1-0.14,0.16-0.21
		C31.3,25.45,31.32,25.44,31.38,25.4z"/>
	<path class="st0" d="M7.59,20.4c0,0.28-0.11,0.64-0.46,0.85c-0.38,0.23-0.39,0.52-0.34,0.88c0.27,1.97,0.94,3.8,2.07,5.5
		c1.77,2.67,4.14,4.68,7.28,5.87c1.27,0.48,2.58,0.79,3.93,0.98c0.37,0.05,0.65,0,0.91-0.31c0.46-0.57,1.4-0.57,1.96-0.04
		c0.52,0.49,0.48,1.34-0.09,1.82c-0.57,0.47-1.48,0.42-1.89-0.14c-0.26-0.36-0.58-0.47-1-0.53c-1.98-0.25-3.87-0.78-5.64-1.66
		c-2.41-1.2-4.31-2.91-5.82-5.02c-1.39-1.96-2.22-4.11-2.53-6.44c-0.05-0.37-0.19-0.65-0.53-0.87c-0.52-0.34-0.64-0.98-0.35-1.53
		c0.26-0.5,0.89-0.77,1.51-0.63C7.19,19.23,7.59,19.71,7.59,20.4z"/>
	<path class="st0" d="M8.43,35.5c-0.79,0-1.34-0.5-1.33-1.21c0.01-0.68,0.58-1.23,1.3-1.24c0.76,0,1.32,0.53,1.32,1.24
		C9.71,35,9.18,35.5,8.43,35.5z"/>
</g>
</svg>
