<svg xmlns="http://www.w3.org/2000/svg" xmlns:xlink="http://www.w3.org/1999/xlink" viewBox="0,0,256,256" width="24px" height="24px" fill-rule="nonzero"><g fill="#cae9ea" fill-rule="nonzero" stroke="none" stroke-width="1" stroke-linecap="butt" stroke-linejoin="miter" stroke-miterlimit="10" stroke-dasharray="" stroke-dashoffset="0" font-family="none" font-weight="none" font-size="none" text-anchor="none" style="mix-blend-mode: normal"><g transform="scale(10.66667,10.66667)"><path d="M5,3c-1.103,0 -2,0.897 -2,2v7c0,1.103 0.897,2 2,2h5v5c0,1.103 0.897,2 2,2h7c1.103,0 2,-0.897 2,-2v-7c0,-1.103 -0.897,-2 -2,-2h-5v-5c0,-1.103 -0.897,-2 -2,-2zM5,5h7v5c-0.62569,0 -1.17794,0.29495 -1.54492,0.74609l-1.49219,-4.74609h-0.92383l-1.5625,5h1.06836l0.26758,-1.02344h1.37695l0.26758,1.02344h0.82227c-0.17248,0.29551 -0.2793,0.63378 -0.2793,1h-5zM8.49805,7.35352l0.46875,1.78125h-0.93555zM12,12h7l0.00195,7h-7.00195zM15.29688,12.99805c-0.584,0 -1.1875,0.60381 -1.1875,1.13281c0,0.588 0.46094,1.03906 0.46094,1.03906c0,0 -0.94336,0.47206 -0.94336,1.41406c0,0.945 1.05281,1.41602 1.88281,1.41602c1.249,0 1.86523,-0.62695 1.86523,-0.62695c0,0 -2.10966,0.10697 -2.59766,-0.95703c-0.1,-0.22 0.01228,-0.86398 0.48828,-1.08398c0.664,-0.307 1.13281,0.16602 1.13281,0.16602l0.31055,-1.16211c0,0 -0.49189,0.12695 -0.96289,0.12695c-0.166,0 -0.74219,-0.10828 -0.74219,-0.48828c0,-0.302 0.37581,-0.42187 0.50781,-0.42187c0.473,0 0.91797,0.17969 0.91797,0.17969v-0.44531c0,0 -0.39681,-0.28906 -1.13281,-0.28906z"></path></g></g></svg>