<svg xmlns="http://www.w3.org/2000/svg" xmlns:xlink="http://www.w3.org/1999/xlink" viewBox="0,0,256,256" width="78px" height="78px" fill-rule="nonzero"><g fill="#cae9ea" fill-rule="nonzero" stroke="none" stroke-width="1" stroke-linecap="butt" stroke-linejoin="miter" stroke-miterlimit="10" stroke-dasharray="" stroke-dashoffset="0" font-family="none" font-weight="none" font-size="none" text-anchor="none" style="mix-blend-mode: normal"><g transform="scale(0.064,0.064)"><path d="M2650,1999.937c0,-358.452 -291.611,-650 -650,-650c-358.389,0 -650,291.548 -650,650c0,358.452 291.611,650 650,650c358.389,0 650,-291.548 650,-650zM2000,2389.937c-215.059,0 -390,-174.941 -390,-390c0,-215.059 174.941,-390 390,-390c215.059,0 390,174.941 390,390c0,215.059 -174.941,390 -390,390z"></path><path d="M2130,960v-130c0,-71.792 -58.208,-130 -130,-130c-71.792,0 -130,58.208 -130,130v130c0,71.729 58.208,130 130,130c71.792,0 130,-58.271 130,-130z"></path><path d="M2919.268,1080.732c-50.781,-50.781 -133.174,-50.781 -183.828,0l-91.914,91.914c-50.781,50.781 -50.781,133.11 0,183.828c25.327,25.391 58.652,38.086 91.914,38.086c33.262,0 66.523,-12.695 91.914,-38.086l91.914,-91.914c50.781,-50.717 50.781,-133.046 0,-183.828z"></path><path d="M3170,1870h-130c-71.729,0 -130,58.208 -130,130c0,71.792 58.271,130 130,130h130c71.792,0 130,-58.208 130,-130c0,-71.792 -58.208,-130 -130,-130z"></path><path d="M2735.439,2919.268c25.327,25.391 58.652,38.086 91.914,38.086c33.262,0 66.523,-12.695 91.914,-38.086c50.781,-50.781 50.781,-133.11 0,-183.828l-91.914,-91.914c-50.781,-50.781 -133.174,-50.781 -183.828,0c-50.781,50.718 -50.781,133.047 0,183.828z"></path><path d="M1870,3040v130c0,71.792 58.208,130 130,130c71.792,0 130,-58.208 130,-130v-130c0,-71.729 -58.208,-130 -130,-130c-71.792,0 -130,58.271 -130,130z"></path><path d="M1080.732,2919.268c25.391,25.391 58.652,38.086 91.914,38.086c33.262,0 66.587,-12.695 91.914,-38.086l91.914,-91.914c50.781,-50.781 50.781,-133.11 0,-183.828c-50.654,-50.781 -133.047,-50.781 -183.828,0l-91.914,91.914c-50.781,50.717 -50.781,133.046 0,183.828z"></path><path d="M700,2000c0,71.792 58.208,130 130,130h130c71.729,0 130,-58.208 130,-130c0,-71.792 -58.271,-130 -130,-130h-130c-71.792,0 -130,58.208 -130,130z"></path><path d="M1356.475,1356.475c50.781,-50.718 50.781,-133.047 0,-183.828l-91.914,-91.914c-50.654,-50.781 -133.047,-50.781 -183.828,0c-50.781,50.781 -50.781,133.11 0,183.828l91.914,91.914c25.391,25.391 58.652,38.086 91.914,38.086c33.262,0 66.586,-12.696 91.914,-38.086z"></path></g></g></svg>